<mxfile host="app.diagrams.net" agent="Mozilla/5.0 (Windows NT 10.0; Win64; x64) AppleWebKit/537.36 (KHTML, like Gecko) Chrome/126.0.0.0 Safari/537.36 Edg/126.0.0.0" version="24.7.5">
  <diagram name="Page-1" id="XovYSc9VxgBBoyLTzxwy">
    <mxGraphModel dx="1375" dy="1414" grid="1" gridSize="10" guides="1" tooltips="1" connect="1" arrows="1" fold="1" page="1" pageScale="1" pageWidth="850" pageHeight="1100" math="0" shadow="0">
      <root>
        <mxCell id="0" />
        <mxCell id="1" parent="0" />
        <mxCell id="QE4EvPiiiCpDDDPfgIJF-1" value="aboutus&#xa;&lt;&lt;extends JFrame&gt;&gt;&#xa;" style="swimlane;fontStyle=1;align=center;verticalAlign=top;childLayout=stackLayout;horizontal=1;startSize=40;horizontalStack=0;resizeParent=1;resizeParentMax=0;resizeLast=0;collapsible=0;marginBottom=0;" parent="1" vertex="1">
          <mxGeometry x="-530" y="-590" width="280" height="301.74" as="geometry" />
        </mxCell>
        <mxCell id="QE4EvPiiiCpDDDPfgIJF-2" value="-  HeaderBg: JPanel" style="text;strokeColor=none;fillColor=none;align=left;verticalAlign=top;spacingLeft=4;spacingRight=4;overflow=hidden;rotatable=0;points=[[0,0.5],[1,0.5]];portConstraint=eastwest;" parent="QE4EvPiiiCpDDDPfgIJF-1" vertex="1">
          <mxGeometry y="40" width="280" height="31" as="geometry" />
        </mxCell>
        <mxCell id="QE4EvPiiiCpDDDPfgIJF-3" value="-  MainBg: JLabel" style="text;strokeColor=none;fillColor=none;align=left;verticalAlign=top;spacingLeft=4;spacingRight=4;overflow=hidden;rotatable=0;points=[[0,0.5],[1,0.5]];portConstraint=eastwest;" parent="QE4EvPiiiCpDDDPfgIJF-1" vertex="1">
          <mxGeometry y="71" width="280" height="31" as="geometry" />
        </mxCell>
        <mxCell id="QE4EvPiiiCpDDDPfgIJF-4" value="-  aboutUsLabel: JButton" style="text;strokeColor=none;fillColor=none;align=left;verticalAlign=top;spacingLeft=4;spacingRight=4;overflow=hidden;rotatable=0;points=[[0,0.5],[1,0.5]];portConstraint=eastwest;" parent="QE4EvPiiiCpDDDPfgIJF-1" vertex="1">
          <mxGeometry y="102" width="280" height="31" as="geometry" />
        </mxCell>
        <mxCell id="QE4EvPiiiCpDDDPfgIJF-5" value="-  homepageLabel: JPanel" style="text;strokeColor=none;fillColor=none;align=left;verticalAlign=top;spacingLeft=4;spacingRight=4;overflow=hidden;rotatable=0;points=[[0,0.5],[1,0.5]];portConstraint=eastwest;" parent="QE4EvPiiiCpDDDPfgIJF-1" vertex="1">
          <mxGeometry y="133" width="280" height="31" as="geometry" />
        </mxCell>
        <mxCell id="QE4EvPiiiCpDDDPfgIJF-6" value="-  jScrollPane2: JScrollPane" style="text;strokeColor=none;fillColor=none;align=left;verticalAlign=top;spacingLeft=4;spacingRight=4;overflow=hidden;rotatable=0;points=[[0,0.5],[1,0.5]];portConstraint=eastwest;" parent="QE4EvPiiiCpDDDPfgIJF-1" vertex="1">
          <mxGeometry y="164" width="280" height="26" as="geometry" />
        </mxCell>
        <mxCell id="QE4EvPiiiCpDDDPfgIJF-7" value="-  jTextArea2: JTextArea" style="text;strokeColor=none;fillColor=none;align=left;verticalAlign=top;spacingLeft=4;spacingRight=4;overflow=hidden;rotatable=0;points=[[0,0.5],[1,0.5]];portConstraint=eastwest;" parent="QE4EvPiiiCpDDDPfgIJF-1" vertex="1">
          <mxGeometry y="190" width="280" height="26" as="geometry" />
        </mxCell>
        <mxCell id="QE4EvPiiiCpDDDPfgIJF-8" style="line;strokeWidth=1;fillColor=none;align=left;verticalAlign=middle;spacingTop=-1;spacingLeft=3;spacingRight=3;rotatable=0;labelPosition=right;points=[];portConstraint=eastwest;strokeColor=inherit;" parent="QE4EvPiiiCpDDDPfgIJF-1" vertex="1">
          <mxGeometry y="216" width="280" height="7.74" as="geometry" />
        </mxCell>
        <mxCell id="QE4EvPiiiCpDDDPfgIJF-9" value="+  &lt;&lt;Constructor&gt;&gt; aboutus()" style="text;strokeColor=none;fillColor=none;align=left;verticalAlign=top;spacingLeft=4;spacingRight=4;overflow=hidden;rotatable=0;points=[[0,0.5],[1,0.5]];portConstraint=eastwest;" parent="QE4EvPiiiCpDDDPfgIJF-1" vertex="1">
          <mxGeometry y="223.74" width="280" height="26" as="geometry" />
        </mxCell>
        <mxCell id="QE4EvPiiiCpDDDPfgIJF-10" value="+  initComponents()" style="text;strokeColor=none;fillColor=none;align=left;verticalAlign=top;spacingLeft=4;spacingRight=4;overflow=hidden;rotatable=0;points=[[0,0.5],[1,0.5]];portConstraint=eastwest;" parent="QE4EvPiiiCpDDDPfgIJF-1" vertex="1">
          <mxGeometry y="249.74" width="280" height="26" as="geometry" />
        </mxCell>
        <mxCell id="QE4EvPiiiCpDDDPfgIJF-11" value="- homepageLabelActionPerformed(ActionEvent)" style="text;strokeColor=none;fillColor=none;align=left;verticalAlign=top;spacingLeft=4;spacingRight=4;overflow=hidden;rotatable=0;points=[[0,0.5],[1,0.5]];portConstraint=eastwest;" parent="QE4EvPiiiCpDDDPfgIJF-1" vertex="1">
          <mxGeometry y="275.74" width="280" height="26" as="geometry" />
        </mxCell>
        <mxCell id="QE4EvPiiiCpDDDPfgIJF-13" value="Homepage&#xa;&lt;&lt;extends JFrame&gt;&gt;&#xa;" style="swimlane;fontStyle=1;align=center;verticalAlign=top;childLayout=stackLayout;horizontal=1;startSize=40;horizontalStack=0;resizeParent=1;resizeParentMax=0;resizeLast=0;collapsible=0;marginBottom=0;" parent="1" vertex="1">
          <mxGeometry x="-390" y="260" width="250" height="848.6" as="geometry" />
        </mxCell>
        <mxCell id="QE4EvPiiiCpDDDPfgIJF-14" value="-  jPanel1: JPanel" style="text;strokeColor=none;fillColor=none;align=left;verticalAlign=top;spacingLeft=4;spacingRight=4;overflow=hidden;rotatable=0;points=[[0,0.5],[1,0.5]];portConstraint=eastwest;" parent="QE4EvPiiiCpDDDPfgIJF-13" vertex="1">
          <mxGeometry y="40" width="250" height="31" as="geometry" />
        </mxCell>
        <mxCell id="QE4EvPiiiCpDDDPfgIJF-15" value="-  jPanel2: JPanel" style="text;strokeColor=none;fillColor=none;align=left;verticalAlign=top;spacingLeft=4;spacingRight=4;overflow=hidden;rotatable=0;points=[[0,0.5],[1,0.5]];portConstraint=eastwest;" parent="QE4EvPiiiCpDDDPfgIJF-13" vertex="1">
          <mxGeometry y="71" width="250" height="31" as="geometry" />
        </mxCell>
        <mxCell id="QE4EvPiiiCpDDDPfgIJF-16" value="-  jLabel3: JLabel" style="text;strokeColor=none;fillColor=none;align=left;verticalAlign=top;spacingLeft=4;spacingRight=4;overflow=hidden;rotatable=0;points=[[0,0.5],[1,0.5]];portConstraint=eastwest;" parent="QE4EvPiiiCpDDDPfgIJF-13" vertex="1">
          <mxGeometry y="102" width="250" height="31" as="geometry" />
        </mxCell>
        <mxCell id="QE4EvPiiiCpDDDPfgIJF-17" value="-  jLabel4: JLabel" style="text;strokeColor=none;fillColor=none;align=left;verticalAlign=top;spacingLeft=4;spacingRight=4;overflow=hidden;rotatable=0;points=[[0,0.5],[1,0.5]];portConstraint=eastwest;" parent="QE4EvPiiiCpDDDPfgIJF-13" vertex="1">
          <mxGeometry y="133" width="250" height="31" as="geometry" />
        </mxCell>
        <mxCell id="QE4EvPiiiCpDDDPfgIJF-18" value="-  jLabel5: JLabel" style="text;strokeColor=none;fillColor=none;align=left;verticalAlign=top;spacingLeft=4;spacingRight=4;overflow=hidden;rotatable=0;points=[[0,0.5],[1,0.5]];portConstraint=eastwest;" parent="QE4EvPiiiCpDDDPfgIJF-13" vertex="1">
          <mxGeometry y="164" width="250" height="31" as="geometry" />
        </mxCell>
        <mxCell id="QE4EvPiiiCpDDDPfgIJF-19" value="-  jLabel8: JLabel" style="text;strokeColor=none;fillColor=none;align=left;verticalAlign=top;spacingLeft=4;spacingRight=4;overflow=hidden;rotatable=0;points=[[0,0.5],[1,0.5]];portConstraint=eastwest;" parent="QE4EvPiiiCpDDDPfgIJF-13" vertex="1">
          <mxGeometry y="195" width="250" height="31" as="geometry" />
        </mxCell>
        <mxCell id="QE4EvPiiiCpDDDPfgIJF-20" value="-  jButton6: JButton" style="text;strokeColor=none;fillColor=none;align=left;verticalAlign=top;spacingLeft=4;spacingRight=4;overflow=hidden;rotatable=0;points=[[0,0.5],[1,0.5]];portConstraint=eastwest;" parent="QE4EvPiiiCpDDDPfgIJF-13" vertex="1">
          <mxGeometry y="226" width="250" height="31" as="geometry" />
        </mxCell>
        <mxCell id="QE4EvPiiiCpDDDPfgIJF-21" value="-  jLabel2: JLabel" style="text;strokeColor=none;fillColor=none;align=left;verticalAlign=top;spacingLeft=4;spacingRight=4;overflow=hidden;rotatable=0;points=[[0,0.5],[1,0.5]];portConstraint=eastwest;" parent="QE4EvPiiiCpDDDPfgIJF-13" vertex="1">
          <mxGeometry y="257" width="250" height="31" as="geometry" />
        </mxCell>
        <mxCell id="QE4EvPiiiCpDDDPfgIJF-22" value="-  jLabel1: JLabel" style="text;strokeColor=none;fillColor=none;align=left;verticalAlign=top;spacingLeft=4;spacingRight=4;overflow=hidden;rotatable=0;points=[[0,0.5],[1,0.5]];portConstraint=eastwest;" parent="QE4EvPiiiCpDDDPfgIJF-13" vertex="1">
          <mxGeometry y="288" width="250" height="31" as="geometry" />
        </mxCell>
        <mxCell id="QE4EvPiiiCpDDDPfgIJF-23" value="-  jButton1: JButton" style="text;strokeColor=none;fillColor=none;align=left;verticalAlign=top;spacingLeft=4;spacingRight=4;overflow=hidden;rotatable=0;points=[[0,0.5],[1,0.5]];portConstraint=eastwest;" parent="QE4EvPiiiCpDDDPfgIJF-13" vertex="1">
          <mxGeometry y="319" width="250" height="31" as="geometry" />
        </mxCell>
        <mxCell id="QE4EvPiiiCpDDDPfgIJF-24" value="-  jButton2: JButton" style="text;strokeColor=none;fillColor=none;align=left;verticalAlign=top;spacingLeft=4;spacingRight=4;overflow=hidden;rotatable=0;points=[[0,0.5],[1,0.5]];portConstraint=eastwest;" parent="QE4EvPiiiCpDDDPfgIJF-13" vertex="1">
          <mxGeometry y="350" width="250" height="31" as="geometry" />
        </mxCell>
        <mxCell id="QE4EvPiiiCpDDDPfgIJF-25" value="-  jButton3: JButton" style="text;strokeColor=none;fillColor=none;align=left;verticalAlign=top;spacingLeft=4;spacingRight=4;overflow=hidden;rotatable=0;points=[[0,0.5],[1,0.5]];portConstraint=eastwest;" parent="QE4EvPiiiCpDDDPfgIJF-13" vertex="1">
          <mxGeometry y="381" width="250" height="31" as="geometry" />
        </mxCell>
        <mxCell id="QE4EvPiiiCpDDDPfgIJF-26" value="-  jButton4: JButton" style="text;strokeColor=none;fillColor=none;align=left;verticalAlign=top;spacingLeft=4;spacingRight=4;overflow=hidden;rotatable=0;points=[[0,0.5],[1,0.5]];portConstraint=eastwest;" parent="QE4EvPiiiCpDDDPfgIJF-13" vertex="1">
          <mxGeometry y="412" width="250" height="31" as="geometry" />
        </mxCell>
        <mxCell id="QE4EvPiiiCpDDDPfgIJF-27" value="-  jPanel3: JPanel" style="text;strokeColor=none;fillColor=none;align=left;verticalAlign=top;spacingLeft=4;spacingRight=4;overflow=hidden;rotatable=0;points=[[0,0.5],[1,0.5]];portConstraint=eastwest;" parent="QE4EvPiiiCpDDDPfgIJF-13" vertex="1">
          <mxGeometry y="443" width="250" height="31" as="geometry" />
        </mxCell>
        <mxCell id="QE4EvPiiiCpDDDPfgIJF-28" value="-  jButton13: JButton" style="text;strokeColor=none;fillColor=none;align=left;verticalAlign=top;spacingLeft=4;spacingRight=4;overflow=hidden;rotatable=0;points=[[0,0.5],[1,0.5]];portConstraint=eastwest;" parent="QE4EvPiiiCpDDDPfgIJF-13" vertex="1">
          <mxGeometry y="474" width="250" height="31" as="geometry" />
        </mxCell>
        <mxCell id="QE4EvPiiiCpDDDPfgIJF-29" value="-  jButton14: JButton" style="text;strokeColor=none;fillColor=none;align=left;verticalAlign=top;spacingLeft=4;spacingRight=4;overflow=hidden;rotatable=0;points=[[0,0.5],[1,0.5]];portConstraint=eastwest;" parent="QE4EvPiiiCpDDDPfgIJF-13" vertex="1">
          <mxGeometry y="505" width="250" height="31" as="geometry" />
        </mxCell>
        <mxCell id="QE4EvPiiiCpDDDPfgIJF-30" style="line;strokeWidth=1;fillColor=none;align=left;verticalAlign=middle;spacingTop=-1;spacingLeft=3;spacingRight=3;rotatable=0;labelPosition=right;points=[];portConstraint=eastwest;strokeColor=inherit;" parent="QE4EvPiiiCpDDDPfgIJF-13" vertex="1">
          <mxGeometry y="536" width="250" height="12.6" as="geometry" />
        </mxCell>
        <mxCell id="QE4EvPiiiCpDDDPfgIJF-31" value="+  HomePage()" style="text;strokeColor=none;fillColor=none;align=left;verticalAlign=top;spacingLeft=4;spacingRight=4;overflow=hidden;rotatable=0;points=[[0,0.5],[1,0.5]];portConstraint=eastwest;" parent="QE4EvPiiiCpDDDPfgIJF-13" vertex="1">
          <mxGeometry y="548.6" width="250" height="31" as="geometry" />
        </mxCell>
        <mxCell id="QE4EvPiiiCpDDDPfgIJF-32" value="-  initComponents()" style="text;strokeColor=none;fillColor=none;align=left;verticalAlign=top;spacingLeft=4;spacingRight=4;overflow=hidden;rotatable=0;points=[[0,0.5],[1,0.5]];portConstraint=eastwest;" parent="QE4EvPiiiCpDDDPfgIJF-13" vertex="1">
          <mxGeometry y="579.6" width="250" height="29" as="geometry" />
        </mxCell>
        <mxCell id="QE4EvPiiiCpDDDPfgIJF-33" value="-  jButton1ActionPerformed(ActionEvent)" style="text;strokeColor=none;fillColor=none;align=left;verticalAlign=top;spacingLeft=4;spacingRight=4;overflow=hidden;rotatable=0;points=[[0,0.5],[1,0.5]];portConstraint=eastwest;" parent="QE4EvPiiiCpDDDPfgIJF-13" vertex="1">
          <mxGeometry y="608.6" width="250" height="30" as="geometry" />
        </mxCell>
        <mxCell id="QE4EvPiiiCpDDDPfgIJF-34" value="-  jButton3ActionPerformed(ActionEvent)" style="text;strokeColor=none;fillColor=none;align=left;verticalAlign=top;spacingLeft=4;spacingRight=4;overflow=hidden;rotatable=0;points=[[0,0.5],[1,0.5]];portConstraint=eastwest;" parent="QE4EvPiiiCpDDDPfgIJF-13" vertex="1">
          <mxGeometry y="638.6" width="250" height="30" as="geometry" />
        </mxCell>
        <mxCell id="QE4EvPiiiCpDDDPfgIJF-35" value="-  jButton2ActionPerformed(ActionEvent)" style="text;strokeColor=none;fillColor=none;align=left;verticalAlign=top;spacingLeft=4;spacingRight=4;overflow=hidden;rotatable=0;points=[[0,0.5],[1,0.5]];portConstraint=eastwest;" parent="QE4EvPiiiCpDDDPfgIJF-13" vertex="1">
          <mxGeometry y="668.6" width="250" height="30" as="geometry" />
        </mxCell>
        <mxCell id="QE4EvPiiiCpDDDPfgIJF-36" value="-  jButton4ActionPerformed(ActionEvent)" style="text;strokeColor=none;fillColor=none;align=left;verticalAlign=top;spacingLeft=4;spacingRight=4;overflow=hidden;rotatable=0;points=[[0,0.5],[1,0.5]];portConstraint=eastwest;" parent="QE4EvPiiiCpDDDPfgIJF-13" vertex="1">
          <mxGeometry y="698.6" width="250" height="30" as="geometry" />
        </mxCell>
        <mxCell id="QE4EvPiiiCpDDDPfgIJF-37" value="-  jButton13ActionPerformed(ActionEvent)" style="text;strokeColor=none;fillColor=none;align=left;verticalAlign=top;spacingLeft=4;spacingRight=4;overflow=hidden;rotatable=0;points=[[0,0.5],[1,0.5]];portConstraint=eastwest;" parent="QE4EvPiiiCpDDDPfgIJF-13" vertex="1">
          <mxGeometry y="728.6" width="250" height="30" as="geometry" />
        </mxCell>
        <mxCell id="QE4EvPiiiCpDDDPfgIJF-38" value="-  jButton6ActionPerformed(ActionEvent)" style="text;strokeColor=none;fillColor=none;align=left;verticalAlign=top;spacingLeft=4;spacingRight=4;overflow=hidden;rotatable=0;points=[[0,0.5],[1,0.5]];portConstraint=eastwest;" parent="QE4EvPiiiCpDDDPfgIJF-13" vertex="1">
          <mxGeometry y="758.6" width="250" height="30" as="geometry" />
        </mxCell>
        <mxCell id="QE4EvPiiiCpDDDPfgIJF-39" value="-  jButton14ActionPerformed(ActionEvent)" style="text;strokeColor=none;fillColor=none;align=left;verticalAlign=top;spacingLeft=4;spacingRight=4;overflow=hidden;rotatable=0;points=[[0,0.5],[1,0.5]];portConstraint=eastwest;" parent="QE4EvPiiiCpDDDPfgIJF-13" vertex="1">
          <mxGeometry y="788.6" width="250" height="30" as="geometry" />
        </mxCell>
        <mxCell id="QE4EvPiiiCpDDDPfgIJF-40" value="+  main(String[])" style="text;strokeColor=none;fillColor=none;align=left;verticalAlign=top;spacingLeft=4;spacingRight=4;overflow=hidden;rotatable=0;points=[[0,0.5],[1,0.5]];portConstraint=eastwest;" parent="QE4EvPiiiCpDDDPfgIJF-13" vertex="1">
          <mxGeometry y="818.6" width="250" height="30" as="geometry" />
        </mxCell>
        <mxCell id="QE4EvPiiiCpDDDPfgIJF-56" value="newpassdone&#xa;&lt;&lt;extends JFrame&gt;&gt;&#xa;" style="swimlane;fontStyle=1;align=center;verticalAlign=top;childLayout=stackLayout;horizontal=1;startSize=38;horizontalStack=0;resizeParent=1;resizeParentMax=0;resizeLast=0;collapsible=0;marginBottom=0;" parent="1" vertex="1">
          <mxGeometry x="-60" y="340.00000000000006" width="230" height="252.39999999999998" as="geometry" />
        </mxCell>
        <mxCell id="QE4EvPiiiCpDDDPfgIJF-57" value="-  jPanel1: JPanel" style="text;strokeColor=none;fillColor=none;align=left;verticalAlign=top;spacingLeft=4;spacingRight=4;overflow=hidden;rotatable=0;points=[[0,0.5],[1,0.5]];portConstraint=eastwest;" parent="QE4EvPiiiCpDDDPfgIJF-56" vertex="1">
          <mxGeometry y="38" width="230" height="28" as="geometry" />
        </mxCell>
        <mxCell id="QE4EvPiiiCpDDDPfgIJF-58" value="-  jLabel1: JLabel" style="text;strokeColor=none;fillColor=none;align=left;verticalAlign=top;spacingLeft=4;spacingRight=4;overflow=hidden;rotatable=0;points=[[0,0.5],[1,0.5]];portConstraint=eastwest;" parent="QE4EvPiiiCpDDDPfgIJF-56" vertex="1">
          <mxGeometry y="66" width="230" height="28" as="geometry" />
        </mxCell>
        <mxCell id="QE4EvPiiiCpDDDPfgIJF-59" value="-  jButton1: JButton" style="text;strokeColor=none;fillColor=none;align=left;verticalAlign=top;spacingLeft=4;spacingRight=4;overflow=hidden;rotatable=0;points=[[0,0.5],[1,0.5]];portConstraint=eastwest;" parent="QE4EvPiiiCpDDDPfgIJF-56" vertex="1">
          <mxGeometry y="94" width="230" height="28" as="geometry" />
        </mxCell>
        <mxCell id="QE4EvPiiiCpDDDPfgIJF-60" style="line;strokeWidth=1;fillColor=none;align=left;verticalAlign=middle;spacingTop=-1;spacingLeft=3;spacingRight=3;rotatable=0;labelPosition=right;points=[];portConstraint=eastwest;strokeColor=inherit;" parent="QE4EvPiiiCpDDDPfgIJF-56" vertex="1">
          <mxGeometry y="122" width="230" height="8" as="geometry" />
        </mxCell>
        <mxCell id="QE4EvPiiiCpDDDPfgIJF-61" value="+  newpassdone()" style="text;strokeColor=none;fillColor=none;align=left;verticalAlign=top;spacingLeft=4;spacingRight=4;overflow=hidden;rotatable=0;points=[[0,0.5],[1,0.5]];portConstraint=eastwest;" parent="QE4EvPiiiCpDDDPfgIJF-56" vertex="1">
          <mxGeometry y="130" width="230" height="28" as="geometry" />
        </mxCell>
        <mxCell id="QE4EvPiiiCpDDDPfgIJF-62" value="&amp;nbsp;-&amp;nbsp; initComponents()" style="text;whiteSpace=wrap;html=1;" parent="QE4EvPiiiCpDDDPfgIJF-56" vertex="1">
          <mxGeometry y="158" width="230" height="32.2" as="geometry" />
        </mxCell>
        <mxCell id="QE4EvPiiiCpDDDPfgIJF-63" value="&amp;nbsp;-&amp;nbsp; jButton1ActionPerformed(ActionEvent)" style="text;whiteSpace=wrap;html=1;" parent="QE4EvPiiiCpDDDPfgIJF-56" vertex="1">
          <mxGeometry y="190.2" width="230" height="32.2" as="geometry" />
        </mxCell>
        <mxCell id="QE4EvPiiiCpDDDPfgIJF-64" value="+&amp;nbsp; main(String[])" style="text;whiteSpace=wrap;html=1;" parent="QE4EvPiiiCpDDDPfgIJF-56" vertex="1">
          <mxGeometry y="222.39999999999998" width="230" height="30" as="geometry" />
        </mxCell>
        <mxCell id="QE4EvPiiiCpDDDPfgIJF-65" value="resetpage&#xa;&lt;&lt;extends JFrame&gt;&gt;&#xa;" style="swimlane;fontStyle=1;align=center;verticalAlign=top;childLayout=stackLayout;horizontal=1;startSize=40;horizontalStack=0;resizeParent=1;resizeParentMax=0;resizeLast=0;collapsible=0;marginBottom=0;" parent="1" vertex="1">
          <mxGeometry x="-230" y="-590" width="260" height="363" as="geometry" />
        </mxCell>
        <mxCell id="QE4EvPiiiCpDDDPfgIJF-66" value="-  mainPanel: JPanel" style="text;strokeColor=none;fillColor=none;align=left;verticalAlign=top;spacingLeft=4;spacingRight=4;overflow=hidden;rotatable=0;points=[[0,0.5],[1,0.5]];portConstraint=eastwest;" parent="QE4EvPiiiCpDDDPfgIJF-65" vertex="1">
          <mxGeometry y="40" width="260" height="31" as="geometry" />
        </mxCell>
        <mxCell id="QE4EvPiiiCpDDDPfgIJF-67" value="-  emailLabel: JLabel" style="text;strokeColor=none;fillColor=none;align=left;verticalAlign=top;spacingLeft=4;spacingRight=4;overflow=hidden;rotatable=0;points=[[0,0.5],[1,0.5]];portConstraint=eastwest;" parent="QE4EvPiiiCpDDDPfgIJF-65" vertex="1">
          <mxGeometry y="71" width="260" height="31" as="geometry" />
        </mxCell>
        <mxCell id="QE4EvPiiiCpDDDPfgIJF-68" value="-  applyChanges: JButton" style="text;strokeColor=none;fillColor=none;align=left;verticalAlign=top;spacingLeft=4;spacingRight=4;overflow=hidden;rotatable=0;points=[[0,0.5],[1,0.5]];portConstraint=eastwest;" parent="QE4EvPiiiCpDDDPfgIJF-65" vertex="1">
          <mxGeometry y="102" width="260" height="31" as="geometry" />
        </mxCell>
        <mxCell id="QE4EvPiiiCpDDDPfgIJF-69" value="-  emailField: JTextField" style="text;strokeColor=none;fillColor=none;align=left;verticalAlign=top;spacingLeft=4;spacingRight=4;overflow=hidden;rotatable=0;points=[[0,0.5],[1,0.5]];portConstraint=eastwest;" parent="QE4EvPiiiCpDDDPfgIJF-65" vertex="1">
          <mxGeometry y="133" width="260" height="25" as="geometry" />
        </mxCell>
        <mxCell id="QE4EvPiiiCpDDDPfgIJF-70" value="-  passwordField: JTextField" style="text;strokeColor=none;fillColor=none;align=left;verticalAlign=top;spacingLeft=4;spacingRight=4;overflow=hidden;rotatable=0;points=[[0,0.5],[1,0.5]];portConstraint=eastwest;" parent="QE4EvPiiiCpDDDPfgIJF-65" vertex="1">
          <mxGeometry y="158" width="260" height="25" as="geometry" />
        </mxCell>
        <mxCell id="QE4EvPiiiCpDDDPfgIJF-71" value="-  resetTitle: JLabel" style="text;strokeColor=none;fillColor=none;align=left;verticalAlign=top;spacingLeft=4;spacingRight=4;overflow=hidden;rotatable=0;points=[[0,0.5],[1,0.5]];portConstraint=eastwest;" parent="QE4EvPiiiCpDDDPfgIJF-65" vertex="1">
          <mxGeometry y="183" width="260" height="25" as="geometry" />
        </mxCell>
        <mxCell id="SDU8DpZkJm8AxWShPPcR-4" value="-  applyChanges: JButton" style="text;strokeColor=none;fillColor=none;align=left;verticalAlign=top;spacingLeft=4;spacingRight=4;overflow=hidden;rotatable=0;points=[[0,0.5],[1,0.5]];portConstraint=eastwest;" vertex="1" parent="QE4EvPiiiCpDDDPfgIJF-65">
          <mxGeometry y="208" width="260" height="25" as="geometry" />
        </mxCell>
        <mxCell id="QE4EvPiiiCpDDDPfgIJF-74" style="line;strokeWidth=1;fillColor=none;align=left;verticalAlign=middle;spacingTop=-1;spacingLeft=3;spacingRight=3;rotatable=0;labelPosition=right;points=[];portConstraint=eastwest;strokeColor=inherit;" parent="QE4EvPiiiCpDDDPfgIJF-65" vertex="1">
          <mxGeometry y="233" width="260" height="10" as="geometry" />
        </mxCell>
        <mxCell id="QE4EvPiiiCpDDDPfgIJF-76" value="- &amp;lt;&amp;lt;Constructor&amp;gt;&amp;gt; resetpage()" style="text;whiteSpace=wrap;html=1;" parent="QE4EvPiiiCpDDDPfgIJF-65" vertex="1">
          <mxGeometry y="243" width="260" height="30" as="geometry" />
        </mxCell>
        <mxCell id="SDU8DpZkJm8AxWShPPcR-9" value="- applyChangePerformed(ActionEvent)" style="text;whiteSpace=wrap;html=1;" vertex="1" parent="QE4EvPiiiCpDDDPfgIJF-65">
          <mxGeometry y="273" width="260" height="30" as="geometry" />
        </mxCell>
        <mxCell id="SDU8DpZkJm8AxWShPPcR-7" value="- emailFieldActionPerformed(ActionEvent)" style="text;whiteSpace=wrap;html=1;" vertex="1" parent="QE4EvPiiiCpDDDPfgIJF-65">
          <mxGeometry y="303" width="260" height="30" as="geometry" />
        </mxCell>
        <mxCell id="QE4EvPiiiCpDDDPfgIJF-80" value="- passwordFieldActionPerformed(ActionEvent)" style="text;whiteSpace=wrap;html=1;" parent="QE4EvPiiiCpDDDPfgIJF-65" vertex="1">
          <mxGeometry y="333" width="260" height="30" as="geometry" />
        </mxCell>
        <mxCell id="QE4EvPiiiCpDDDPfgIJF-82" value="db" style="swimlane;fontStyle=1;align=center;verticalAlign=top;childLayout=stackLayout;horizontal=1;startSize=27.8;horizontalStack=0;resizeParent=1;resizeParentMax=0;resizeLast=0;collapsible=0;marginBottom=0;" parent="1" vertex="1">
          <mxGeometry x="220" y="389.99999999999994" width="230" height="242.2" as="geometry" />
        </mxCell>
        <mxCell id="QE4EvPiiiCpDDDPfgIJF-83" value="-  jPanel1: JPanel" style="text;strokeColor=none;fillColor=none;align=left;verticalAlign=top;spacingLeft=4;spacingRight=4;overflow=hidden;rotatable=0;points=[[0,0.5],[1,0.5]];portConstraint=eastwest;" parent="QE4EvPiiiCpDDDPfgIJF-82" vertex="1">
          <mxGeometry y="27.8" width="230" height="28" as="geometry" />
        </mxCell>
        <mxCell id="QE4EvPiiiCpDDDPfgIJF-84" value="-  jLabel1: JLabel" style="text;strokeColor=none;fillColor=none;align=left;verticalAlign=top;spacingLeft=4;spacingRight=4;overflow=hidden;rotatable=0;points=[[0,0.5],[1,0.5]];portConstraint=eastwest;" parent="QE4EvPiiiCpDDDPfgIJF-82" vertex="1">
          <mxGeometry y="55.8" width="230" height="28" as="geometry" />
        </mxCell>
        <mxCell id="QE4EvPiiiCpDDDPfgIJF-85" value="jButton1: JButton" style="text;strokeColor=none;fillColor=none;align=left;verticalAlign=top;spacingLeft=4;spacingRight=4;overflow=hidden;rotatable=0;points=[[0,0.5],[1,0.5]];portConstraint=eastwest;" parent="QE4EvPiiiCpDDDPfgIJF-82" vertex="1">
          <mxGeometry y="83.8" width="230" height="28" as="geometry" />
        </mxCell>
        <mxCell id="QE4EvPiiiCpDDDPfgIJF-86" style="line;strokeWidth=1;fillColor=none;align=left;verticalAlign=middle;spacingTop=-1;spacingLeft=3;spacingRight=3;rotatable=0;labelPosition=right;points=[];portConstraint=eastwest;strokeColor=inherit;" parent="QE4EvPiiiCpDDDPfgIJF-82" vertex="1">
          <mxGeometry y="111.8" width="230" height="8" as="geometry" />
        </mxCell>
        <mxCell id="QE4EvPiiiCpDDDPfgIJF-87" value="+  newpassdone()" style="text;strokeColor=none;fillColor=none;align=left;verticalAlign=top;spacingLeft=4;spacingRight=4;overflow=hidden;rotatable=0;points=[[0,0.5],[1,0.5]];portConstraint=eastwest;" parent="QE4EvPiiiCpDDDPfgIJF-82" vertex="1">
          <mxGeometry y="119.8" width="230" height="28" as="geometry" />
        </mxCell>
        <mxCell id="QE4EvPiiiCpDDDPfgIJF-88" value="- initComponents()" style="text;whiteSpace=wrap;html=1;" parent="QE4EvPiiiCpDDDPfgIJF-82" vertex="1">
          <mxGeometry y="147.8" width="230" height="32.2" as="geometry" />
        </mxCell>
        <mxCell id="QE4EvPiiiCpDDDPfgIJF-89" value="-&amp;nbsp; jButton1ActionPerformed(ActionEvent)" style="text;whiteSpace=wrap;html=1;" parent="QE4EvPiiiCpDDDPfgIJF-82" vertex="1">
          <mxGeometry y="180" width="230" height="32.2" as="geometry" />
        </mxCell>
        <mxCell id="QE4EvPiiiCpDDDPfgIJF-90" value="+&amp;nbsp; main(String[])" style="text;whiteSpace=wrap;html=1;" parent="QE4EvPiiiCpDDDPfgIJF-82" vertex="1">
          <mxGeometry y="212.2" width="230" height="30" as="geometry" />
        </mxCell>
        <mxCell id="SDU8DpZkJm8AxWShPPcR-15" value="Profilepage&#xa;&lt;&lt;extends JFrame&gt;&gt;&#xa;&#xa;" style="swimlane;fontStyle=1;align=center;verticalAlign=top;childLayout=stackLayout;horizontal=1;startSize=42;horizontalStack=0;resizeParent=1;resizeParentMax=0;resizeLast=0;collapsible=0;marginBottom=0;" vertex="1" parent="1">
          <mxGeometry x="75" y="-590" width="230" height="414" as="geometry" />
        </mxCell>
        <mxCell id="SDU8DpZkJm8AxWShPPcR-16" value="-  mainPanel: JPanel" style="text;strokeColor=none;fillColor=none;align=left;verticalAlign=top;spacingLeft=4;spacingRight=4;overflow=hidden;rotatable=0;points=[[0,0.5],[1,0.5]];portConstraint=eastwest;" vertex="1" parent="SDU8DpZkJm8AxWShPPcR-15">
          <mxGeometry y="42" width="230" height="31" as="geometry" />
        </mxCell>
        <mxCell id="SDU8DpZkJm8AxWShPPcR-17" value="-  accImage: JLabel" style="text;strokeColor=none;fillColor=none;align=left;verticalAlign=top;spacingLeft=4;spacingRight=4;overflow=hidden;rotatable=0;points=[[0,0.5],[1,0.5]];portConstraint=eastwest;" vertex="1" parent="SDU8DpZkJm8AxWShPPcR-15">
          <mxGeometry y="73" width="230" height="31" as="geometry" />
        </mxCell>
        <mxCell id="SDU8DpZkJm8AxWShPPcR-18" value="-  name: JLabel" style="text;strokeColor=none;fillColor=none;align=left;verticalAlign=top;spacingLeft=4;spacingRight=4;overflow=hidden;rotatable=0;points=[[0,0.5],[1,0.5]];portConstraint=eastwest;" vertex="1" parent="SDU8DpZkJm8AxWShPPcR-15">
          <mxGeometry y="104" width="230" height="31" as="geometry" />
        </mxCell>
        <mxCell id="SDU8DpZkJm8AxWShPPcR-19" value="-  nameHeader: JLabel" style="text;strokeColor=none;fillColor=none;align=left;verticalAlign=top;spacingLeft=4;spacingRight=4;overflow=hidden;rotatable=0;points=[[0,0.5],[1,0.5]];portConstraint=eastwest;" vertex="1" parent="SDU8DpZkJm8AxWShPPcR-15">
          <mxGeometry y="135" width="230" height="31" as="geometry" />
        </mxCell>
        <mxCell id="SDU8DpZkJm8AxWShPPcR-20" value="-  nameHeader: JLabel" style="text;strokeColor=none;fillColor=none;align=left;verticalAlign=top;spacingLeft=4;spacingRight=4;overflow=hidden;rotatable=0;points=[[0,0.5],[1,0.5]];portConstraint=eastwest;" vertex="1" parent="SDU8DpZkJm8AxWShPPcR-15">
          <mxGeometry y="166" width="230" height="31" as="geometry" />
        </mxCell>
        <mxCell id="SDU8DpZkJm8AxWShPPcR-21" value="-  pass: JLabel" style="text;strokeColor=none;fillColor=none;align=left;verticalAlign=top;spacingLeft=4;spacingRight=4;overflow=hidden;rotatable=0;points=[[0,0.5],[1,0.5]];portConstraint=eastwest;" vertex="1" parent="SDU8DpZkJm8AxWShPPcR-15">
          <mxGeometry y="197" width="230" height="31" as="geometry" />
        </mxCell>
        <mxCell id="SDU8DpZkJm8AxWShPPcR-22" value="-  passwordHeader: JLabel" style="text;strokeColor=none;fillColor=none;align=left;verticalAlign=top;spacingLeft=4;spacingRight=4;overflow=hidden;rotatable=0;points=[[0,0.5],[1,0.5]];portConstraint=eastwest;" vertex="1" parent="SDU8DpZkJm8AxWShPPcR-15">
          <mxGeometry y="228" width="230" height="31" as="geometry" />
        </mxCell>
        <mxCell id="SDU8DpZkJm8AxWShPPcR-23" value="-  resetPassword: JButton" style="text;strokeColor=none;fillColor=none;align=left;verticalAlign=top;spacingLeft=4;spacingRight=4;overflow=hidden;rotatable=0;points=[[0,0.5],[1,0.5]];portConstraint=eastwest;" vertex="1" parent="SDU8DpZkJm8AxWShPPcR-15">
          <mxGeometry y="259" width="230" height="31" as="geometry" />
        </mxCell>
        <mxCell id="SDU8DpZkJm8AxWShPPcR-24" style="line;strokeWidth=1;fillColor=none;align=left;verticalAlign=middle;spacingTop=-1;spacingLeft=3;spacingRight=3;rotatable=0;labelPosition=right;points=[];portConstraint=eastwest;strokeColor=inherit;" vertex="1" parent="SDU8DpZkJm8AxWShPPcR-15">
          <mxGeometry y="290" width="230" height="8" as="geometry" />
        </mxCell>
        <mxCell id="SDU8DpZkJm8AxWShPPcR-25" value="+  &lt;&lt;Constructor&gt;&gt; Profilepage()" style="text;strokeColor=none;fillColor=none;align=left;verticalAlign=top;spacingLeft=4;spacingRight=4;overflow=hidden;rotatable=0;points=[[0,0.5],[1,0.5]];portConstraint=eastwest;" vertex="1" parent="SDU8DpZkJm8AxWShPPcR-15">
          <mxGeometry y="298" width="230" height="29" as="geometry" />
        </mxCell>
        <mxCell id="SDU8DpZkJm8AxWShPPcR-26" value="+  initComponents()" style="text;strokeColor=none;fillColor=none;align=left;verticalAlign=top;spacingLeft=4;spacingRight=4;overflow=hidden;rotatable=0;points=[[0,0.5],[1,0.5]];portConstraint=eastwest;" vertex="1" parent="SDU8DpZkJm8AxWShPPcR-15">
          <mxGeometry y="327" width="230" height="29" as="geometry" />
        </mxCell>
        <mxCell id="SDU8DpZkJm8AxWShPPcR-27" value="-  jButton2ActionPerformed(ActionEvent)" style="text;strokeColor=none;fillColor=none;align=left;verticalAlign=top;spacingLeft=4;spacingRight=4;overflow=hidden;rotatable=0;points=[[0,0.5],[1,0.5]];portConstraint=eastwest;" vertex="1" parent="SDU8DpZkJm8AxWShPPcR-15">
          <mxGeometry y="356" width="230" height="29" as="geometry" />
        </mxCell>
        <mxCell id="SDU8DpZkJm8AxWShPPcR-28" value="-  jButton1ActionPerformed(ActionEvent)" style="text;strokeColor=none;fillColor=none;align=left;verticalAlign=top;spacingLeft=4;spacingRight=4;overflow=hidden;rotatable=0;points=[[0,0.5],[1,0.5]];portConstraint=eastwest;" vertex="1" parent="SDU8DpZkJm8AxWShPPcR-15">
          <mxGeometry y="385" width="230" height="29" as="geometry" />
        </mxCell>
      </root>
    </mxGraphModel>
  </diagram>
</mxfile>
